<?xml version="1.0" encoding="UTF-8" standalone="no"?><svg xmlns="http://www.w3.org/2000/svg" xmlns:xlink="http://www.w3.org/1999/xlink" contentScriptType="application/ecmascript" contentStyleType="text/css" height="417px" preserveAspectRatio="none" style="width:603px;height:417px;" version="1.1" viewBox="0 0 603 417" width="603px" zoomAndPan="magnify"><defs><filter height="300%" id="f1e8pa4guuydb3" width="300%" x="-1" y="-1"><feGaussianBlur result="blurOut" stdDeviation="2.0"/><feColorMatrix in="blurOut" result="blurOut2" type="matrix" values="0 0 0 0 0 0 0 0 0 0 0 0 0 0 0 0 0 0 .4 0"/><feOffset dx="4.0" dy="4.0" in="blurOut2" result="blurOut3"/><feBlend in="SourceGraphic" in2="blurOut3" mode="normal"/></filter></defs><g><line style="stroke: #A80036; stroke-width: 1.0; stroke-dasharray: 5.0,5.0;" x1="33" x2="33" y1="38.2969" y2="376.7578"/><line style="stroke: #A80036; stroke-width: 1.0; stroke-dasharray: 5.0,5.0;" x1="253" x2="253" y1="38.2969" y2="376.7578"/><line style="stroke: #A80036; stroke-width: 1.0; stroke-dasharray: 5.0,5.0;" x1="484" x2="484" y1="38.2969" y2="376.7578"/><rect fill="#FEFECE" filter="url(#f1e8pa4guuydb3)" height="30.2969" style="stroke: #A80036; stroke-width: 1.5;" width="46" x="8" y="3"/><text fill="#000000" font-family="sans-serif" font-size="14" lengthAdjust="spacingAndGlyphs" textLength="32" x="15" y="22.9951">User</text><rect fill="#FEFECE" filter="url(#f1e8pa4guuydb3)" height="30.2969" style="stroke: #A80036; stroke-width: 1.5;" width="46" x="8" y="375.7578"/><text fill="#000000" font-family="sans-serif" font-size="14" lengthAdjust="spacingAndGlyphs" textLength="32" x="15" y="395.7529">User</text><rect fill="#FEFECE" filter="url(#f1e8pa4guuydb3)" height="30.2969" style="stroke: #A80036; stroke-width: 1.5;" width="106" x="198" y="3"/><text fill="#000000" font-family="sans-serif" font-size="14" lengthAdjust="spacingAndGlyphs" textLength="92" x="205" y="22.9951">Control Plane</text><rect fill="#FEFECE" filter="url(#f1e8pa4guuydb3)" height="30.2969" style="stroke: #A80036; stroke-width: 1.5;" width="106" x="198" y="375.7578"/><text fill="#000000" font-family="sans-serif" font-size="14" lengthAdjust="spacingAndGlyphs" textLength="92" x="205" y="395.7529">Control Plane</text><rect fill="#FEFECE" filter="url(#f1e8pa4guuydb3)" height="30.2969" style="stroke: #A80036; stroke-width: 1.5;" width="112" x="426" y="3"/><text fill="#000000" font-family="sans-serif" font-size="14" lengthAdjust="spacingAndGlyphs" textLength="98" x="433" y="22.9951">Worker Nodes</text><rect fill="#FEFECE" filter="url(#f1e8pa4guuydb3)" height="30.2969" style="stroke: #A80036; stroke-width: 1.5;" width="112" x="426" y="375.7578"/><text fill="#000000" font-family="sans-serif" font-size="14" lengthAdjust="spacingAndGlyphs" textLength="98" x="433" y="395.7529">Worker Nodes</text><polygon fill="#A80036" points="241,65.4297,251,69.4297,241,73.4297,245,69.4297" style="stroke: #A80036; stroke-width: 1.0;"/><line style="stroke: #A80036; stroke-width: 1.0;" x1="33" x2="247" y1="69.4297" y2="69.4297"/><text fill="#000000" font-family="sans-serif" font-size="13" font-weight="bold" lengthAdjust="spacingAndGlyphs" textLength="9" x="40" y="64.3638">1</text><text fill="#000000" font-family="sans-serif" font-size="13" lengthAdjust="spacingAndGlyphs" textLength="105" x="53" y="64.3638">run nginx for me</text><polygon fill="#A80036" points="44,109.6953,34,113.6953,44,117.6953,40,113.6953" style="stroke: #A80036; stroke-width: 1.0;"/><line style="stroke: #A80036; stroke-width: 1.0;" x1="38" x2="252" y1="113.6953" y2="113.6953"/><text fill="#000000" font-family="sans-serif" font-size="13" font-weight="bold" lengthAdjust="spacingAndGlyphs" textLength="9" x="50" y="101.063">2</text><text fill="#000000" font-family="sans-serif" font-size="13" lengthAdjust="spacingAndGlyphs" textLength="180" x="63" y="93.4966">sounds good, I've registered</text><text fill="#000000" font-family="sans-serif" font-size="13" lengthAdjust="spacingAndGlyphs" textLength="183" x="63" y="108.6294">your intent. Check back later</text><polygon fill="#A80036" points="472,138.8281,482,142.8281,472,146.8281,476,142.8281" style="stroke: #A80036; stroke-width: 1.0;"/><line style="stroke: #A80036; stroke-width: 1.0;" x1="253" x2="478" y1="142.8281" y2="142.8281"/><text fill="#000000" font-family="sans-serif" font-size="13" font-weight="bold" lengthAdjust="spacingAndGlyphs" textLength="9" x="260" y="137.7622">3</text><text fill="#000000" font-family="sans-serif" font-size="13" lengthAdjust="spacingAndGlyphs" textLength="164" x="273" y="137.7622">hey you! run nginx for me</text><polygon fill="#A80036" points="264,167.9609,254,171.9609,264,175.9609,260,171.9609" style="stroke: #A80036; stroke-width: 1.0;"/><line style="stroke: #A80036; stroke-width: 1.0;" x1="258" x2="483" y1="171.9609" y2="171.9609"/><text fill="#000000" font-family="sans-serif" font-size="13" font-weight="bold" lengthAdjust="spacingAndGlyphs" textLength="9" x="270" y="166.895">4</text><text fill="#000000" font-family="sans-serif" font-size="13" lengthAdjust="spacingAndGlyphs" textLength="194" x="283" y="166.895">sure, I'll do it. Coming right up.</text><line style="stroke: #A80036; stroke-width: 1.0;" x1="484" x2="526" y1="201.0938" y2="201.0938"/><line style="stroke: #A80036; stroke-width: 1.0;" x1="526" x2="526" y1="201.0938" y2="214.0938"/><line style="stroke: #A80036; stroke-width: 1.0;" x1="485" x2="526" y1="214.0938" y2="214.0938"/><polygon fill="#A80036" points="495,210.0938,485,214.0938,495,218.0938,491,214.0938" style="stroke: #A80036; stroke-width: 1.0;"/><text fill="#000000" font-family="sans-serif" font-size="13" font-weight="bold" lengthAdjust="spacingAndGlyphs" textLength="9" x="491" y="196.0278">5</text><text fill="#000000" font-family="sans-serif" font-size="13" lengthAdjust="spacingAndGlyphs" textLength="87" x="504" y="196.0278">...does stuff...</text><polygon fill="#A80036" points="264,239.2266,254,243.2266,264,247.2266,260,243.2266" style="stroke: #A80036; stroke-width: 1.0;"/><line style="stroke: #A80036; stroke-width: 1.0;" x1="258" x2="483" y1="243.2266" y2="243.2266"/><text fill="#000000" font-family="sans-serif" font-size="13" font-weight="bold" lengthAdjust="spacingAndGlyphs" textLength="9" x="270" y="238.1606">6</text><text fill="#000000" font-family="sans-serif" font-size="13" lengthAdjust="spacingAndGlyphs" textLength="99" x="283" y="238.1606">Ready, captain!</text><line style="stroke: #A80036; stroke-width: 1.0;" x1="253" x2="295" y1="272.3594" y2="272.3594"/><line style="stroke: #A80036; stroke-width: 1.0;" x1="295" x2="295" y1="272.3594" y2="285.3594"/><line style="stroke: #A80036; stroke-width: 1.0;" x1="254" x2="295" y1="285.3594" y2="285.3594"/><polygon fill="#A80036" points="264,281.3594,254,285.3594,264,289.3594,260,285.3594" style="stroke: #A80036; stroke-width: 1.0;"/><text fill="#000000" font-family="sans-serif" font-size="13" font-weight="bold" lengthAdjust="spacingAndGlyphs" textLength="9" x="260" y="267.2935">7</text><text fill="#000000" font-family="sans-serif" font-size="13" lengthAdjust="spacingAndGlyphs" textLength="132" x="273" y="267.2935">...records diligently...</text><polygon fill="#A80036" points="241,310.4922,251,314.4922,241,318.4922,245,314.4922" style="stroke: #A80036; stroke-width: 1.0;"/><line style="stroke: #A80036; stroke-width: 1.0;" x1="33" x2="247" y1="314.4922" y2="314.4922"/><text fill="#000000" font-family="sans-serif" font-size="13" font-weight="bold" lengthAdjust="spacingAndGlyphs" textLength="9" x="40" y="309.4263">8</text><text fill="#000000" font-family="sans-serif" font-size="13" lengthAdjust="spacingAndGlyphs" textLength="138" x="53" y="309.4263">so... hows that nginx?</text><polygon fill="#A80036" points="44,354.7578,34,358.7578,44,362.7578,40,358.7578" style="stroke: #A80036; stroke-width: 1.0;"/><line style="stroke: #A80036; stroke-width: 1.0;" x1="38" x2="252" y1="358.7578" y2="358.7578"/><text fill="#000000" font-family="sans-serif" font-size="13" font-weight="bold" lengthAdjust="spacingAndGlyphs" textLength="9" x="50" y="346.1255">9</text><text fill="#000000" font-family="sans-serif" font-size="13" lengthAdjust="spacingAndGlyphs" textLength="140" x="63" y="338.5591">oh its ready. I thought</text><text fill="#000000" font-family="sans-serif" font-size="13" lengthAdjust="spacingAndGlyphs" textLength="129" x="63" y="353.6919">you would never ask</text></g></svg>